<svg width="60" height="61" viewBox="0 0 60 61" fill="none" xmlns="http://www.w3.org/2000/svg">
<path d="M0 30.9688C0 14.4002 13.4315 0.96875 30 0.96875V0.96875C46.5685 0.96875 60 14.4002 60 30.9688V30.9688C60 47.5373 46.5685 60.9688 30 60.9688V60.9688C13.4315 60.9688 0 47.5373 0 30.9688V30.9688Z" fill="#EFF6F1"/>
<g clip-path="url(#clip0_221_5)">
<path d="M33.6585 23.516C34.7231 23.5191 35.7431 23.9276 36.4958 24.6525C37.2486 25.3774 37.6729 26.3596 37.6761 27.3847V35.1215C37.6729 36.1466 37.2486 37.1287 36.4958 37.8537C35.7431 38.5786 34.7231 38.9871 33.6585 38.9902H25.6243C24.5598 38.9871 23.5397 38.5786 22.787 37.8537C22.0342 37.1287 21.6099 36.1466 21.6068 35.1215V27.3847C21.6099 26.3596 22.0342 25.3774 22.787 24.6525C23.5397 23.9276 24.5598 23.5191 25.6243 23.516H33.6585ZM33.6585 21.9688H25.6243C22.5309 21.9688 20 24.4059 20 27.3847V35.1215C20 38.1003 22.5309 40.5373 25.6243 40.5373H33.6585C36.752 40.5373 39.2828 38.1003 39.2828 35.1215V27.3847C39.2828 24.4059 36.752 21.9688 33.6585 21.9688Z" fill="#274C5B"/>
<path d="M34.8633 27.3855C34.6249 27.3855 34.3919 27.3175 34.1937 27.1899C33.9956 27.0624 33.8411 26.8812 33.7499 26.6691C33.6587 26.457 33.6348 26.2237 33.6813 25.9986C33.7278 25.7735 33.8426 25.5667 34.0111 25.4044C34.1797 25.2421 34.3944 25.1315 34.6282 25.0867C34.862 25.042 35.1043 25.065 35.3245 25.1528C35.5447 25.2406 35.7329 25.3894 35.8654 25.5802C35.9978 25.7711 36.0685 25.9955 36.0685 26.225C36.0688 26.3775 36.0379 26.5285 35.9774 26.6695C35.917 26.8104 35.8282 26.9385 35.7163 27.0463C35.6043 27.1542 35.4713 27.2397 35.3249 27.2979C35.1785 27.3561 35.0217 27.3859 34.8633 27.3855ZM29.641 28.1589C30.2767 28.1589 30.8981 28.3405 31.4266 28.6805C31.9551 29.0206 32.3671 29.504 32.6103 30.0695C32.8536 30.635 32.9172 31.2573 32.7932 31.8576C32.6692 32.458 32.3631 33.0094 31.9136 33.4423C31.4641 33.8751 30.8915 34.1699 30.268 34.2893C29.6446 34.4087 28.9984 34.3474 28.4111 34.1132C27.8238 33.8789 27.3219 33.4822 26.9687 32.9733C26.6156 32.4643 26.4271 31.866 26.4271 31.2539C26.428 30.4333 26.7669 29.6466 27.3694 29.0664C27.972 28.4862 28.7889 28.1598 29.641 28.1589ZM29.641 26.6117C28.6876 26.6117 27.7555 26.884 26.9628 27.394C26.17 27.9041 25.5521 28.6291 25.1873 29.4774C24.8224 30.3256 24.7269 31.259 24.9129 32.1595C25.0989 33.06 25.5581 33.8871 26.2323 34.5363C26.9064 35.1855 27.7654 35.6277 28.7005 35.8068C29.6357 35.9859 30.605 35.894 31.4858 35.5426C32.3667 35.1913 33.1196 34.5963 33.6493 33.8329C34.179 33.0695 34.4617 32.172 34.4617 31.2539C34.4617 30.0227 33.9538 28.8419 33.0498 27.9714C32.1457 27.1008 30.9196 26.6117 29.641 26.6117Z" fill="#274C5B"/>
</g>
<defs>
<clipPath id="clip0_221_5">
<rect width="20" height="19" fill="white" transform="translate(20 21.9688)"/>
</clipPath>
</defs>
</svg>
