<svg width="60" height="61" viewBox="0 0 60 61" fill="none" xmlns="http://www.w3.org/2000/svg">
<path d="M0 30.9688C0 14.4002 13.4315 0.96875 30 0.96875C46.5685 0.96875 60 14.4002 60 30.9688C60 47.5373 46.5685 60.9688 30 60.9688C13.4315 60.9688 0 47.5373 0 30.9688Z" fill="#EFF6F1"/>
<g clip-path="url(#clip0_221_6)">
<path d="M29.7966 20.9688C24.3866 20.9688 20 25.3534 20 30.761C20 34.7697 22.4142 38.2146 25.8649 39.7314C25.8386 39.0494 25.8605 38.2276 26.0354 37.4844C26.2235 36.6888 27.295 32.1468 27.295 32.1468C27.295 32.1468 26.9801 31.5217 26.9801 30.5993C26.9801 29.1479 27.8198 28.0638 28.8695 28.0638C29.7617 28.0638 30.1903 28.7326 30.1903 29.5326C30.1903 30.4288 29.6173 31.7664 29.3243 33.0079C29.0794 34.0484 29.8448 34.8921 30.8725 34.8921C32.7269 34.8921 33.9777 32.5097 33.9777 29.6856C33.9777 27.5392 32.5301 25.9348 29.9016 25.9348C26.932 25.9348 25.0776 28.1512 25.0776 30.6255C25.0776 31.478 25.3313 32.0813 25.7249 32.5447C25.9042 32.7589 25.9305 32.8463 25.8649 33.0911C25.8168 33.2703 25.7118 33.703 25.6637 33.8779C25.5981 34.1271 25.3969 34.2146 25.1739 34.1228C23.8049 33.5632 23.1664 32.0681 23.1664 30.3807C23.1664 27.6004 25.515 24.2649 30.1684 24.2649C33.9077 24.2649 36.37 26.9709 36.37 29.8736C36.37 33.7162 34.2314 36.584 31.0824 36.584C30.0241 36.584 29.0313 36.0113 28.6901 35.3643C28.6901 35.3643 28.1216 37.6199 27.9991 38.0571C27.7936 38.8134 27.3868 39.5654 27.0151 40.1555C27.9169 40.4214 28.8521 40.5569 29.7923 40.5576C35.2023 40.5576 39.5889 36.173 39.5889 30.7654C39.5889 25.3578 35.2067 20.9688 29.7966 20.9688Z" fill="#274C5B"/>
</g>
<defs>
<clipPath id="clip0_221_6">
<rect width="20" height="20" fill="white" transform="translate(20 20.9688)"/>
</clipPath>
</defs>
</svg>
